<svg width="20" height="20" viewBox="0 0 20 20" fill="none" xmlns="http://www.w3.org/2000/svg">
<g clip-path="url(#clip0_13_4)">
<path d="M6.66666 3.33331H3.33333C2.44928 3.33331 1.60143 3.6845 0.97631 4.30962C0.351189 4.93475 0 5.78259 0 6.66665L0 9.99999C0 10.442 0.175595 10.8659 0.488155 11.1785C0.800715 11.4911 1.22464 11.6667 1.66667 11.6667H6.59166C6.39394 12.8304 5.79123 13.8869 4.89002 14.6493C3.98882 15.4118 2.84712 15.8311 1.66667 15.8333C1.44565 15.8333 1.23369 15.9211 1.07741 16.0774C0.92113 16.2337 0.833333 16.4456 0.833333 16.6667C0.833333 16.8877 0.92113 17.0996 1.07741 17.2559C1.23369 17.4122 1.44565 17.5 1.66667 17.5C3.43416 17.498 5.1287 16.795 6.37851 15.5452C7.62833 14.2954 8.33134 12.6008 8.33333 10.8333V4.99998C8.33333 4.55795 8.15773 4.13403 7.84517 3.82147C7.53261 3.50891 7.10869 3.33331 6.66666 3.33331Z" fill="#CCCCCC"/>
<path d="M18.3333 3.33331H15C14.1159 3.33331 13.2681 3.6845 12.6429 4.30962C12.0178 4.93475 11.6666 5.78259 11.6666 6.66665V9.99999C11.6666 10.442 11.8422 10.8659 12.1548 11.1785C12.4673 11.4911 12.8913 11.6667 13.3333 11.6667H18.2583C18.0606 12.8304 17.4579 13.8869 16.5567 14.6493C15.6554 15.4118 14.5138 15.8311 13.3333 15.8333C13.1123 15.8333 12.9003 15.9211 12.744 16.0774C12.5878 16.2337 12.5 16.4456 12.5 16.6667C12.5 16.8877 12.5878 17.0996 12.744 17.2559C12.9003 17.4122 13.1123 17.5 13.3333 17.5C15.1008 17.498 16.7953 16.795 18.0451 15.5452C19.295 14.2954 19.998 12.6008 20 10.8333V4.99998C20 4.55795 19.8244 4.13403 19.5118 3.82147C19.1992 3.50891 18.7753 3.33331 18.3333 3.33331Z" fill="#CCCCCC"/>
</g>
<defs>
<clipPath id="clip0_13_4">
<rect width="20" height="20" fill="white"/>
</clipPath>
</defs>
</svg>
