<svg width="20" height="20" viewBox="0 0 20 20" fill="none" xmlns="http://www.w3.org/2000/svg">
<g clip-path="url(#clip0_13_7)">
<path d="M13.3333 3.33331H16.6667C17.5507 3.33331 18.3986 3.6845 19.0237 4.30962C19.6488 4.93475 20 5.78259 20 6.66665V9.99999C20 10.442 19.8244 10.8659 19.5118 11.1785C19.1993 11.4911 18.7754 11.6667 18.3333 11.6667H13.4083C13.6061 12.8304 14.2088 13.8869 15.11 14.6493C16.0112 15.4118 17.1529 15.8311 18.3333 15.8333C18.5543 15.8333 18.7663 15.9211 18.9226 16.0774C19.0789 16.2337 19.1667 16.4456 19.1667 16.6667C19.1667 16.8877 19.0789 17.0996 18.9226 17.2559C18.7663 17.4122 18.5543 17.5 18.3333 17.5C16.5658 17.498 14.8713 16.795 13.6215 15.5452C12.3717 14.2954 11.6687 12.6008 11.6667 10.8333V4.99998C11.6667 4.55795 11.8423 4.13403 12.1548 3.82147C12.4674 3.50891 12.8913 3.33331 13.3333 3.33331Z" fill="#CCCCCC"/>
<path d="M1.66671 3.33331H5.00004C5.8841 3.33331 6.73194 3.6845 7.35706 4.30962C7.98218 4.93475 8.33337 5.78259 8.33337 6.66665V9.99999C8.33337 10.442 8.15778 10.8659 7.84522 11.1785C7.53266 11.4911 7.10873 11.6667 6.66671 11.6667H1.74171C1.93943 12.8304 2.54214 13.8869 3.44335 14.6493C4.34455 15.4118 5.48625 15.8311 6.66671 15.8333C6.88772 15.8333 7.09968 15.9211 7.25596 16.0774C7.41224 16.2337 7.50004 16.4456 7.50004 16.6667C7.50004 16.8877 7.41224 17.0996 7.25596 17.2559C7.09968 17.4122 6.88772 17.5 6.66671 17.5C4.89921 17.498 3.20467 16.795 1.95485 15.5452C0.705042 14.2954 0.0020256 12.6008 4.00543e-05 10.8333V4.99998C4.00543e-05 4.55795 0.175635 4.13403 0.488196 3.82147C0.800756 3.50891 1.22468 3.33331 1.66671 3.33331Z" fill="#CCCCCC"/>
</g>
<defs>
<clipPath id="clip0_13_7">
<rect width="20" height="20" fill="white" transform="matrix(-1 0 0 1 20 0)"/>
</clipPath>
</defs>
</svg>
