<svg width="22" height="22" viewBox="0 0 22 22" fill="none" xmlns="http://www.w3.org/2000/svg">
<g clip-path="url(#clip0_4_16)">
<path d="M2.74371 10.9631C2.7357 12.8813 3.39357 14.7429 4.60506 16.2301C5.81655 17.7174 7.50658 18.7382 9.38677 19.1183C11.267 19.4984 13.2208 19.2143 14.9149 18.3144C16.6089 17.4146 17.9383 15.9548 18.676 14.1841C19.4138 12.4134 19.5143 10.4416 18.9603 8.60511C18.4063 6.76861 17.2322 5.18125 15.6384 4.11389C14.0445 3.04653 12.1297 2.56532 10.2206 2.75237C8.31153 2.93941 6.5265 3.78313 5.17013 5.13954L7.32704 7.29646H1.91046C1.77909 7.29658 1.64899 7.27079 1.5276 7.22058C1.40621 7.17036 1.29592 7.0967 1.20303 7.00381C1.11014 6.91092 1.03647 6.80062 0.986258 6.67923C0.936041 6.55784 0.910257 6.42774 0.910378 6.29637V0.87979L3.22863 3.19804C5.02918 1.40602 7.39533 0.293665 9.92401 0.0504594C12.4527 -0.192746 14.9875 0.448243 17.0966 1.86424C19.2057 3.28023 20.7586 5.38364 21.4909 7.81615C22.2232 10.2487 22.0894 12.8598 21.1125 15.2048C20.1356 17.5498 18.3759 19.4836 16.1332 20.6767C13.8905 21.8699 11.3035 22.2486 8.8129 21.7483C6.32229 21.2481 4.08215 19.8999 2.47406 17.9333C0.865973 15.9667 -0.0105839 13.5035 -0.00628853 10.9631H2.74371Z" fill="#9DBDFC"/>
</g>
<defs>
<clipPath id="clip0_4_16">
<rect width="22" height="22" fill="white" transform="matrix(-1 0 0 1 22 0)"/>
</clipPath>
</defs>
</svg>
